<svg width="800" height="800" viewBox="0 0 24 24" fill="none" xmlns="http://www.w3.org/2000/svg">
  <path
    d="M4 14h2.675c.489 0 .733 0 .963.055.205.05.4.13.579.24.201.123.374.296.72.642l.126.126c.346.346.519.519.72.642.18.11.375.19.579.24.23.055.474.055.963.055h1.35c.489 0 .733 0 .963-.055.204-.05.4-.13.579-.24.201-.123.374-.296.72-.642l.126-.126c.346-.346.519-.519.72-.642.18-.11.374-.19.579-.24.23-.055.474-.055.964-.055H20M7.2 4h9.6c1.12 0 1.68 0 2.108.218a2 2 0 01.874.874C20 5.52 20 6.08 20 7.2v9.6c0 1.12 0 1.68-.218 2.108a2 2 0 01-.874.874C18.48 20 17.92 20 16.8 20H7.2c-1.12 0-1.68 0-2.108-.218a2 2 0 01-.874-.874C4 18.48 4 17.92 4 16.8V7.2c0-1.12 0-1.68.218-2.108a2 2 0 01.874-.874C5.52 4 6.08 4 7.2 4z"
    stroke="#000" stroke-width="2" stroke-linecap="round" stroke-linejoin="round" />
</svg>
