<svg width="800" height="800" viewBox="0 0 24 24" xmlns="http://www.w3.org/2000/svg">
  <path
    d="M10.499 4a6.453 6.453 0 00-.423 1.5H6.25a1.75 1.75 0 00-1.744 1.606L4.5 7.25V14H9a.75.75 0 01.743.648l.007.102a2.25 2.25 0 104.5 0 .75.75 0 01.648-.743L15 14h4.5l.001-1.733a6.518 6.518 0 001.5-1.077L21 18.75a3.25 3.25 0 01-3.066 3.245L17.75 22H6.25a3.25 3.25 0 01-3.245-3.066L3 18.75V7.25a3.25 3.25 0 013.066-3.245L6.25 4h4.249zM8.325 15.5H4.5v3.25a1.75 1.75 0 001.606 1.744l.144.006h11.5a1.75 1.75 0 001.744-1.606l.006-.144V15.5h-3.825a3.752 3.752 0 01-3.475 2.995l-.2.005a3.752 3.752 0 01-3.632-2.812l-.043-.188zM16.5 1a5.5 5.5 0 110 11 5.5 5.5 0 010-11zm.128 2.017l-.086-.015L16.488 3l-.056.005-.06.012-.083.03-.074.042-.056.045-2.513 2.512-.057.07a.5.5 0 000 .568l.057.07.07.057a.5.5 0 00.568 0l.07-.057 1.645-1.646L16 10l.008.09a.5.5 0 00.402.402l.09.008.09-.008a.5.5 0 00.402-.402L17 10l-.001-5.294 1.647 1.648.07.057a.5.5 0 00.695-.695l-.057-.07-2.548-2.542-.048-.032-.067-.034-.063-.021z"
    fill="#212121" fill-rule="nonzero" />
</svg>
